<svg xmlns="http://www.w3.org/2000/svg" viewBox="0 0 100 100">
  <defs>
    <g id="cube-gap">
      <polygon
        points="0.5,0.5 7.5,0.5 11,-2 4,-2"
        fill="#ffffff"
        stroke="#050505"
        stroke-width="0.5"
        stroke-linejoin="round"
      />
      <polygon
        points="0.5,0.5 7.5,0.5 7.5,7.5 0.5,7.5"
        fill="#f3f3f0"
        stroke="#050505"
        stroke-width="0.5"
        stroke-linejoin="round"
      />
      <polygon
        points="7.5,0.5 11,-2 11,5 7.5,7.5"
        fill="#d8d8d2"
        stroke="#050505"
        stroke-width="0.5"
        stroke-linejoin="round"
      />
    </g>
  </defs>

  <rect width="100" height="100" rx="22" fill="#121110" />

  <g transform="translate(-5.5 3.5)">
    <use href="#cube-gap" x="78" y="9" />
    <use href="#cube-gap" x="58" y="60" />
    <use href="#cube-gap" x="58" y="52" />
    <use href="#cube-gap" x="58" y="44" />
    <use href="#cube-gap" x="58" y="36" />
    <use href="#cube-gap" x="26" y="20" />
    <use href="#cube-gap" x="34" y="20" />
    <use href="#cube-gap" x="42" y="20" />
    <use href="#cube-gap" x="50" y="20" />
    <use href="#cube-gap" x="58" y="20" />
    <use href="#cube-gap" x="66" y="20" />
    <use href="#cube-gap" x="82" y="20" />
    <use href="#cube-gap" x="90" y="20" />
    <use href="#cube-gap" x="54" y="63" />
    <use href="#cube-gap" x="22" y="23" />
    <use href="#cube-gap" x="86" y="23" />
    <use href="#cube-gap" x="46" y="78" />
    <use href="#cube-gap" x="50" y="66" />
    <use href="#cube-gap" x="18" y="26" />
    <use href="#cube-gap" x="82" y="26" />
    <use href="#cube-gap" x="46" y="69" />
    <use href="#cube-gap" x="14" y="29" />
    <use href="#cube-gap" x="78" y="29" />
    <use href="#cube-gap" x="42" y="72" />
    <use href="#cube-gap" x="42" y="64" />
    <use href="#cube-gap" x="42" y="48" />
    <use href="#cube-gap" x="42" y="40" />
    <use href="#cube-gap" x="10" y="32" />
    <use href="#cube-gap" x="18" y="32" />
    <use href="#cube-gap" x="34" y="32" />
    <use href="#cube-gap" x="42" y="32" />
    <use href="#cube-gap" x="50" y="32" />
    <use href="#cube-gap" x="58" y="32" />
    <use href="#cube-gap" x="66" y="32" />
    <use href="#cube-gap" x="74" y="32" />
    <use href="#cube-gap" x="24" y="21.5" />
    <use href="#cube-gap" x="36" y="64.5" />
  </g>
</svg>
